REM DIRINDEX 1\2,1\4,1\5,1\6,1\7,1\3\8,1\3\9,1\3\10
REM DIRNAME cjc113,folder01,folder02,folder03,folder04,folder05,folder06,folder07,folder08,folder09
TITLE ""
FILE "DB4500_5th_2A_47.mp3" MP3
  TRACK 01 AUDIO
    TITLE "0:"
    INDEX 01 00:00:00
  TRACK 02 AUDIO
    TITLE "8:cjc113_1752"
    INDEX 01 00:00:01
  TRACK 03 AUDIO
    TITLE "0:"
    INDEX 01 00:01:26
  TRACK 04 AUDIO
    TITLE "9:cjc113_1753"
    INDEX 01 00:01:48
  TRACK 05 AUDIO
    TITLE "0:"
    INDEX 01 00:03:04
  TRACK 06 AUDIO
    TITLE "10:cjc113_1754"
    INDEX 01 00:03:25
  TRACK 07 AUDIO
    TITLE "0:"
    INDEX 01 00:06:57
  TRACK 08 AUDIO
    TITLE "8:cjc113_1755"
    INDEX 01 00:07:25
  TRACK 09 AUDIO
    TITLE "0:"
    INDEX 01 00:08:42
  TRACK 10 AUDIO
    TITLE "9:cjc113_1756"
    INDEX 01 00:08:62
  TRACK 11 AUDIO
    TITLE "0:"
    INDEX 01 00:10:12
  TRACK 12 AUDIO
    TITLE "10:cjc113_1757"
    INDEX 01 00:10:37
  TRACK 13 AUDIO
    TITLE "0:"
    INDEX 01 00:14:21
  TRACK 14 AUDIO
    TITLE "8:cjc113_1758"
    INDEX 01 00:14:68
  TRACK 15 AUDIO
    TITLE "0:"
    INDEX 01 00:16:16
  TRACK 16 AUDIO
    TITLE "9:cjc113_1759"
    INDEX 01 00:16:36
  TRACK 17 AUDIO
    TITLE "0:"
    INDEX 01 00:17:51
  TRACK 18 AUDIO
    TITLE "10:cjc113_1760"
    INDEX 01 00:17:72
  TRACK 19 AUDIO
    TITLE "0:"
    INDEX 01 00:21:37
  TRACK 20 AUDIO
    TITLE "8:cjc113_1761"
    INDEX 01 00:22:07
  TRACK 21 AUDIO
    TITLE "0:"
    INDEX 01 00:23:16
  TRACK 22 AUDIO
    TITLE "9:cjc113_1762"
    INDEX 01 00:23:38
  TRACK 23 AUDIO
    TITLE "0:"
    INDEX 01 00:24:61
  TRACK 24 AUDIO
    TITLE "10:cjc113_1763"
    INDEX 01 00:25:09
  TRACK 25 AUDIO
    TITLE "0:"
    INDEX 01 00:28:37
  TRACK 26 AUDIO
    TITLE "8:cjc113_1764"
    INDEX 01 00:29:07
  TRACK 27 AUDIO
    TITLE "0:"
    INDEX 01 00:30:20
  TRACK 28 AUDIO
    TITLE "9:cjc113_1765"
    INDEX 01 00:30:46
  TRACK 29 AUDIO
    TITLE "0:"
    INDEX 01 00:32:23
  TRACK 30 AUDIO
    TITLE "10:cjc113_1766"
    INDEX 01 00:32:45
  TRACK 31 AUDIO
    TITLE "0:"
    INDEX 01 00:35:06
  TRACK 32 AUDIO
    TITLE "8:cjc113_1767"
    INDEX 01 00:35:53
  TRACK 33 AUDIO
    TITLE "0:"
    INDEX 01 00:36:74
  TRACK 34 AUDIO
    TITLE "9:cjc113_1768"
    INDEX 01 00:37:20
  TRACK 35 AUDIO
    TITLE "0:"
    INDEX 01 00:38:73
  TRACK 36 AUDIO
    TITLE "10:cjc113_1769"
    INDEX 01 00:39:21
  TRACK 37 AUDIO
    TITLE "0:"
    INDEX 01 00:42:19
  TRACK 38 AUDIO
    TITLE "8:cjc113_1770"
    INDEX 01 00:42:68
  TRACK 39 AUDIO
    TITLE "0:"
    INDEX 01 00:44:03
  TRACK 40 AUDIO
    TITLE "9:cjc113_1771"
    INDEX 01 00:44:28
  TRACK 41 AUDIO
    TITLE "0:"
    INDEX 01 00:45:69
  TRACK 42 AUDIO
    TITLE "10:cjc113_1772"
    INDEX 01 00:46:17
  TRACK 43 AUDIO
    TITLE "0:"
    INDEX 01 00:49:00
  TRACK 44 AUDIO
    TITLE "8:cjc113_1773"
    INDEX 01 00:49:47
  TRACK 45 AUDIO
    TITLE "0:"
    INDEX 01 00:50:70
  TRACK 46 AUDIO
    TITLE "9:cjc113_1774"
    INDEX 01 00:51:15
  TRACK 47 AUDIO
    TITLE "0:"
    INDEX 01 00:52:71
  TRACK 48 AUDIO
    TITLE "10:cjc113_1775"
    INDEX 01 00:53:17
  TRACK 49 AUDIO
    TITLE "0:"
    INDEX 01 00:56:14
  TRACK 50 AUDIO
    TITLE "8:cjc113_1776"
    INDEX 01 00:56:61
  TRACK 51 AUDIO
    TITLE "0:"
    INDEX 01 00:58:20
  TRACK 52 AUDIO
    TITLE "9:cjc113_1777"
    INDEX 01 00:58:38
  TRACK 53 AUDIO
    TITLE "0:"
    INDEX 01 01:00:23
  TRACK 54 AUDIO
    TITLE "10:cjc113_1778"
    INDEX 01 01:00:45
  TRACK 55 AUDIO
    TITLE "0:"
    INDEX 01 01:04:09
  TRACK 56 AUDIO
    TITLE "8:cjc113_1779"
    INDEX 01 01:04:58
  TRACK 57 AUDIO
    TITLE "0:"
    INDEX 01 01:06:10
  TRACK 58 AUDIO
    TITLE "9:cjc113_1780"
    INDEX 01 01:06:32
  TRACK 59 AUDIO
    TITLE "0:"
    INDEX 01 01:07:74
  TRACK 60 AUDIO
    TITLE "10:cjc113_1781"
    INDEX 01 01:08:19
  TRACK 61 AUDIO
    TITLE "0:"
    INDEX 01 01:11:54
  TRACK 62 AUDIO
    TITLE "8:cjc113_1782"
    INDEX 01 01:12:28
  TRACK 63 AUDIO
    TITLE "0:"
    INDEX 01 01:13:59
  TRACK 64 AUDIO
    TITLE "9:cjc113_1783"
    INDEX 01 01:14:04
  TRACK 65 AUDIO
    TITLE "0:"
    INDEX 01 01:15:58
  TRACK 66 AUDIO
    TITLE "10:cjc113_1784"
    INDEX 01 01:16:05
  TRACK 67 AUDIO
    TITLE "0:"
    INDEX 01 01:19:03
  TRACK 68 AUDIO
    TITLE "8:cjc113_1785"
    INDEX 01 01:19:50
  TRACK 69 AUDIO
    TITLE "0:"
    INDEX 01 01:21:21
  TRACK 70 AUDIO
    TITLE "9:cjc113_1786"
    INDEX 01 01:21:45
  TRACK 71 AUDIO
    TITLE "0:"
    INDEX 01 01:23:26
  TRACK 72 AUDIO
    TITLE "10:cjc113_1787"
    INDEX 01 01:23:48
  TRACK 73 AUDIO
    TITLE "0:"
    INDEX 01 01:27:03
  TRACK 74 AUDIO
    TITLE "8:cjc113_1788"
    INDEX 01 01:27:50
  TRACK 75 AUDIO
    TITLE "0:"
    INDEX 01 01:29:13
  TRACK 76 AUDIO
    TITLE "9:cjc113_1789"
    INDEX 01 01:29:37
  TRACK 77 AUDIO
    TITLE "0:"
    INDEX 01 01:31:04
  TRACK 78 AUDIO
    TITLE "10:cjc113_1790"
    INDEX 01 01:31:26
  TRACK 79 AUDIO
    TITLE "0:"
    INDEX 01 01:34:61
